HIERARCHY
ROOT Hips
{
	OFFSET -13.091600 -28.302996 44.698402
	CHANNELS 6 Xposition Yposition Zposition Zrotation Xrotation Yrotation
	JOINT Chest
	{
		OFFSET -0.673000 0.623899 5.369202
		CHANNELS 6 Xposition Yposition Zposition Zrotation Xrotation Yrotation
		JOINT Chest2
		{
			OFFSET 0.000000 0.000000 4.415001
			CHANNELS 6 Xposition Yposition Zposition Zrotation Xrotation Yrotation
			JOINT Neck
			{
				OFFSET 0.000000 0.000002 10.273300
				CHANNELS 6 Xposition Yposition Zposition Zrotation Xrotation Yrotation
				JOINT Head
				{
					OFFSET 0.000000 0.000000 2.173897
					CHANNELS 6 Xposition Yposition Zposition Zrotation Xrotation Yrotation
					End Site
					{
						OFFSET 0.000000 0.000000 9.961800
					}
				}
			}
			JOINT LeftCollar
			{
				OFFSET 2.359900 -0.565201 5.928101
				CHANNELS 6 Xposition Yposition Zposition Zrotation Xrotation Yrotation
				JOINT LeftShoulder
				{
					OFFSET 5.443700 0.000000 0.000000
					CHANNELS 6 Xposition Yposition Zposition Zrotation Xrotation Yrotation
					JOINT LeftElbow
					{
						OFFSET 0.000000 0.000000 -10.615799
						CHANNELS 6 Xposition Yposition Zposition Zrotation Xrotation Yrotation
						JOINT LeftWrist
						{
							OFFSET 0.000000 -0.000002 -13.110302
							CHANNELS 6 Xposition Yposition Zposition Zrotation Xrotation Yrotation
							End Site
							{
								OFFSET 0.000000 0.000000 -2.173901
							}
						}
					}
				}
			}
			JOINT RightCollar
			{
				OFFSET -2.636600 -1.718800 6.889698
				CHANNELS 6 Xposition Yposition Zposition Zrotation Xrotation Yrotation
				JOINT RightShoulder
				{
					OFFSET -4.139101 0.000000 0.000000
					CHANNELS 6 Xposition Yposition Zposition Zrotation Xrotation Yrotation
					JOINT RightElbow
					{
						OFFSET 0.000000 0.000000 -10.471802
						CHANNELS 6 Xposition Yposition Zposition Zrotation Xrotation Yrotation
						JOINT RightWrist
						{
							OFFSET 0.000000 0.000000 -12.281898
							CHANNELS 6 Xposition Yposition Zposition Zrotation Xrotation Yrotation
							End Site
							{
								OFFSET 0.000000 -0.000002 -2.173901
							}
						}
					}
				}
			}
		}
	}
	JOINT LeftHip
	{
		OFFSET 2.273400 0.176701 -2.518002
		CHANNELS 6 Xposition Yposition Zposition Zrotation Xrotation Yrotation
		JOINT LeftKnee
		{
			OFFSET 0.000000 -0.000002 -20.456402
			CHANNELS 6 Xposition Yposition Zposition Zrotation Xrotation Yrotation
			JOINT LeftAnkle
			{
				OFFSET 0.000000 -0.000002 -16.635300
				CHANNELS 6 Xposition Yposition Zposition Zrotation Xrotation Yrotation
				End Site
				{
					OFFSET 0.000000 -8.812399 0.000001
				}
			}
		}
	}
	JOINT RightHip
	{
		OFFSET -1.914800 0.018101 -2.699299
		CHANNELS 6 Xposition Yposition Zposition Zrotation Xrotation Yrotation
		JOINT RightKnee
		{
			OFFSET 0.000000 -0.000002 -20.148901
			CHANNELS 6 Xposition Yposition Zposition Zrotation Xrotation Yrotation
			JOINT RightAnkle
			{
				OFFSET 0.000000 -0.000002 -16.838301
				CHANNELS 6 Xposition Yposition Zposition Zrotation Xrotation Yrotation
				End Site
				{
					OFFSET 0.000000 -8.328398 0.000001
				}
			}
		}
	}
}
MOTION
Frames: 4
Frame Time: 0.041667
-14.827099 21.918207 44.717304 1447.381999 -8.610258 -1.055379 -0.673005 0.623894 5.369213 -7.778166 11.741683 1.165692 0.000001 0.000000 4.415010 12.213708 -0.077431 1.141300 -0.000000 -0.000001 10.273295 -5.280677 6.020311 3.108396 -0.000000 -0.000001 2.173903 -0.690706 0.623799 -1.610108 2.359900 -0.565199 5.928095 -1.415845 3.239021 -3.049875 5.443695 -0.000005 0.000001 -64.504088 -2.165353 -12.425787 -0.000000 -0.000006 -10.615794 534.899216 -182.692425 181.676694 0.000006 -0.000005 -13.110296 -141.776627 -184.610560 178.393954 -2.636601 -1.718801 6.889701 196.530019 -187.585449 168.390582 -4.139098 -0.000004 -0.000009 411.557447 -347.967266 389.535169 -0.000000 0.000003 -10.471795 -11.709773 0.855762 -358.737463 -0.000001 -0.000009 -12.281905 331.900557 28.189936 43.814280 2.273395 0.176697 -2.517988 -160.485813 -169.623705 -183.799967 0.000000 -0.000005 -20.456408 169.785225 148.366380 -179.064242 -0.000003 -0.000005 -16.635300 8.119345 22.046867 11.838915 -1.914802 0.018096 -2.699292 184.183182 170.534961 192.705236 0.000001 -0.000006 -20.148907 -9.147215 27.747688 -7.007513 0.000000 -0.000005 -16.838301 -13.474803 22.194532 -3.403855
-14.543300 21.796412 44.730804 1447.777713 -8.537106 -1.120417 -0.673004 0.623897 5.369211 -8.182418 11.733157 1.147142 0.000003 0.000001 4.415007 12.927946 -0.082887 1.195427 -0.000004 -0.000002 10.273302 -5.828390 5.988353 3.265461 -0.000002 0.000008 2.173901 -0.707286 0.623356 -1.680340 2.359895 -0.565202 5.928101 -1.489171 3.380627 -2.989197 5.443698 -0.000005 -0.000002 -65.508515 -2.320416 -13.026627 -0.000000 -0.000001 -10.615792 533.471980 -182.583715 181.794733 0.000000 -0.000002 -13.110297 -140.926036 -184.798896 178.602193 -2.636604 -1.718805 6.889701 196.634890 -187.803551 168.095846 -4.139092 -0.000006 -0.000003 414.540546 -346.549646 389.286331 -0.000001 -0.000010 -10.471798 -12.140225 0.770376 -359.089245 -0.000002 0.000001 -12.281897 329.692739 29.160246 44.763844 2.273397 0.176700 -2.518001 -160.976822 -169.981729 -183.502389 -0.000001 -0.000007 -20.456396 169.963739 148.523925 -178.859623 -0.000003 -0.000001 -16.635296 8.272787 21.951832 11.625487 -1.914802 0.018100 -2.699295 182.693709 171.600812 193.369199 0.000003 -0.000008 -20.148897 -8.614105 29.541036 -6.455755 0.000001 0.000000 -16.838303 -12.927890 22.318126 -3.196145
-14.269401 21.680708 44.741100 1448.234298 -8.400912 -1.185078 -0.673000 0.623899 5.369214 -8.648511 11.672534 1.146246 0.000001 0.000000 4.415000 13.685251 -0.088929 1.250004 0.000001 0.000001 10.273310 -6.369029 5.952460 3.372173 -0.000001 -0.000003 2.173898 -0.745452 0.610613 -1.750912 2.359901 -0.565203 5.928099 -1.606211 3.532357 -2.926819 5.443697 0.000000 0.000005 -66.509944 -2.458486 -13.646590 -0.000003 -0.000003 -10.615798 532.235497 -182.467206 181.894672 0.000000 -0.000008 -13.110297 -140.559023 -184.581354 179.627336 -2.636600 -1.718804 6.889703 197.135529 -188.097618 167.835561 -4.139095 -0.000004 0.000000 417.131646 -345.513862 388.970831 -0.000003 -0.000001 -10.471802 -12.586041 0.766052 -359.312538 -0.000004 -0.000001 -12.281894 327.665430 30.072315 45.565893 2.273398 0.176698 -2.517995 -161.396031 -170.231974 -183.159678 -0.000001 -0.000004 -20.456406 170.108388 148.648972 -178.670276 -0.000004 0.000002 -16.635298 8.394797 21.832097 11.251310 -1.914798 0.018100 -2.699293 181.025585 172.884054 193.999379 0.000000 -0.000006 -20.148899 -7.406886 31.499070 -6.033204 -0.000001 -0.000000 -16.838303 -12.610770 22.403965 -3.021718
-14.005601 21.569204 44.749802 1448.765632 -8.260934 -1.183388 -0.673000 0.623897 5.369209 -9.063398 11.603895 1.101616 0.000003 0.000001 4.415002 14.360365 -0.091584 1.299181 -0.000001 0.000002 10.273302 -6.893054 5.938923 3.386355 0.000001 -0.000004 2.173909 -0.808208 0.585387 -1.775935 2.359900 -0.565200 5.928106 -1.753062 3.737259 -2.901599 5.443693 -0.000004 0.000003 -67.518756 -2.605463 -14.323397 -0.000003 -0.000003 -10.615790 531.021690 -182.333607 181.992112 0.000002 -0.000004 -13.110304 -139.699170 -184.661063 178.895973 -2.636600 -1.718802 6.889702 197.713650 -188.479862 167.545606 -4.139097 0.000006 0.000001 419.608874 -344.576213 388.781170 -0.000002 -0.000005 -10.471795 -12.981050 0.711336 -359.615115 0.000000 0.000000 -12.281900 325.880073 30.894479 46.217298 2.273398 0.176704 -2.517995 -161.840308 -170.437125 -182.861048 -0.000001 -0.000004 -20.456400 170.147689 148.752012 -178.447175 -0.000003 -0.000002 -16.635300 8.572901 21.653141 10.815044 -1.914801 0.018101 -2.699288 179.072930 174.391545 194.517285 -0.000002 -0.000005 -20.148905 -5.643739 33.667806 -5.686844 0.000002 -0.000002 -16.838301 -12.690157 22.506558 -2.730688
